<svg viewBox="0 0 16 16" fill="none" xmlns="http://www.w3.org/2000/svg" id="Upload--Streamline-Unicons" height="16" width="16"><desc>Upload Streamline Icon: https://streamlinehq.com</desc><path d="m5.4206666666666665 4.634666666666666 1.7953333333333332 -1.8032v7.5186c0 0.20786666666666667 0.08266666666666667 0.4073333333333333 0.22966666666666663 0.5543333333333333s0.34639999999999993 0.22966666666666663 0.5543333333333333 0.22966666666666663c0.20793333333333333 0 0.4074 -0.08266666666666667 0.5544 -0.22966666666666663s0.22959999999999997 -0.3464666666666667 0.22959999999999997 -0.5543333333333333V2.8314666666666666l1.7953333333333332 1.8032c0.07293333333333332 0.07346666666666667 0.15966666666666665 0.13179999999999997 0.2551333333333333 0.1716 0.09559999999999999 0.0398 0.19806666666666664 0.06033333333333333 0.3015333333333333 0.06033333333333333s0.20593333333333333 -0.020533333333333334 0.3015333333333333 -0.06033333333333333c0.09546666666666666 -0.0398 0.18219999999999997 -0.09813333333333332 0.2551333333333333 -0.1716 0.07346666666666667 -0.07286666666666666 0.13179999999999997 -0.1596 0.1716 -0.2551333333333333 0.0398 -0.09553333333333333 0.06026666666666666 -0.19799999999999998 0.06026666666666666 -0.30146666666666666 0 -0.10353333333333332 -0.020466666666666668 -0.206 -0.06026666666666666 -0.3015333333333333 -0.0398 -0.09553333333333333 -0.09813333333333332 -0.18226666666666663 -0.1716 -0.2551333333333333L8.556666666666667 0.38539999999999996c-0.0746 -0.07139999999999999 -0.16246666666666665 -0.12733333333333333 -0.2587333333333333 -0.16466666666666666 -0.19093333333333332 -0.0784 -0.40493333333333337 -0.0784 -0.5958666666666667 0 -0.09626666666666667 0.03733333333333333 -0.18413333333333332 0.09326666666666666 -0.2587333333333333 0.16466666666666666l-3.1359999999999997 3.1359999999999997c-0.07306666666666667 0.07313333333333333 -0.13106666666666666 0.15986666666666666 -0.1706 0.25539999999999996 -0.039599999999999996 0.09546666666666666 -0.059933333333333325 0.19786666666666666 -0.059933333333333325 0.3012666666666667 0 0.10333333333333333 0.02033333333333333 0.20573333333333332 0.059933333333333325 0.30119999999999997 0.03953333333333333 0.09553333333333333 0.09753333333333333 0.18233333333333335 0.1706 0.25539999999999996 0.07313333333333333 0.07313333333333333 0.15993333333333332 0.13113333333333332 0.25539999999999996 0.17066666666666666 0.09553333333333333 0.03953333333333333 0.19786666666666666 0.059933333333333325 0.3012666666666667 0.059933333333333325 0.10339999999999999 0 0.20573333333333332 -0.020399999999999998 0.3012666666666667 -0.059933333333333325 0.09546666666666666 -0.03953333333333333 0.18226666666666663 -0.09753333333333333 0.25539999999999996 -0.17066666666666666Zm9.635333333333332 3.3633999999999995c-0.20793333333333333 0 -0.4073333333333333 0.08259999999999999 -0.5543333333333333 0.22959999999999997s-0.22966666666666663 0.3464666666666667 -0.22966666666666663 0.5544v4.704c0 0.20786666666666667 -0.08259999999999999 0.4073333333333333 -0.22959999999999997 0.5543333333333333s-0.3464666666666667 0.22966666666666663 -0.5544 0.22966666666666663H2.5119999999999996c-0.20793333333333333 0 -0.4073333333333333 -0.08266666666666667 -0.5544 -0.22966666666666663 -0.147 -0.147 -0.22959999999999997 -0.3464666666666667 -0.22959999999999997 -0.5543333333333333v-4.704c0 -0.20793333333333333 -0.08259999999999999 -0.4074 -0.22959999999999997 -0.5544 -0.14706666666666665 -0.147 -0.3464666666666667 -0.22959999999999997 -0.5544 -0.22959999999999997s-0.4073333333333333 0.08259999999999999 -0.5544 0.22959999999999997c-0.147 0.147 -0.22959999999999997 0.3464666666666667 -0.22959999999999997 0.5544v4.704c0 0.6237333333333333 0.24779999999999996 1.222 0.6888666666666667 1.6630666666666667 0.44113333333333327 0.4410666666666666 1.0393333333333332 0.6889333333333334 1.6631333333333331 0.6889333333333334h10.975999999999999c0.6237333333333333 0 1.222 -0.24786666666666668 1.6631333333333331 -0.6889333333333334 0.4410666666666666 -0.4410666666666666 0.6888666666666667 -1.0393333333333332 0.6888666666666667 -1.6630666666666667v-4.704c0 -0.20793333333333333 -0.08266666666666667 -0.4074 -0.22959999999999997 -0.5544s-0.3464666666666667 -0.22959999999999997 -0.5544 -0.22959999999999997Z" fill="#000000" stroke-width="0.6667"></path></svg>